<?xml version="1.0" encoding="utf-8"?>
<!-- Generator: Adobe Illustrator 22.0.1, SVG Export Plug-In . SVG Version: 6.00 Build 0)  -->
<svg version="1.1" id="Layer_1" xmlns="http://www.w3.org/2000/svg" xmlns:xlink="http://www.w3.org/1999/xlink" x="0px" y="0px"
	 viewBox="0 0 900 364.5" style="enable-background:new 0 0 900 364.5;" xml:space="preserve">
<style type="text/css">
	.st0{fill:none;stroke:#070002;stroke-width:0.6601;stroke-miterlimit:10;}
</style>
<g>
	<path class="st0" d="M0,3.2c68,0,68,22.2,136.1,22.2c68,0,68-22.2,136.1-22.2c68,0,68,22.2,136.1,22.2c68,0,68-22.2,136.1-22.2
		c68,0,68,22.2,136.1,22.2c68,0,68-22.2,136.1-22.2"/>
	<path class="st0" d="M3.6,6.9c68,0,68,22.2,136.1,22.2c68,0,68-22.2,136.1-22.2c68,0,68,22.2,136.1,22.2c68,0,68-22.2,136.1-22.2
		c68,0,68,22.2,136.1,22.2S752,6.9,820,6.9"/>
	<path class="st0" d="M7.1,10.6c68,0,68,22.2,136.1,22.2c68,0,68-22.2,136.1-22.2c68,0,68,22.2,136.1,22.2c68,0,68-22.2,136.1-22.2
		c68,0,68,22.2,136.1,22.2s68-22.2,136.1-22.2"/>
	<path class="st0" d="M10.7,14.2c68,0,68,22.2,136.1,22.2c68,0,68-22.2,136.1-22.2c68,0,68,22.2,136.1,22.2c68,0,68-22.2,136.1-22.2
		s68,22.2,136.1,22.2s68-22.2,136.1-22.2"/>
	<path class="st0" d="M14.3,17.9c68,0,68,22.2,136.1,22.2c68,0,68-22.2,136.1-22.2c68,0,68,22.2,136.1,22.2c68,0,68-22.2,136.1-22.2
		c68,0,68,22.2,136.1,22.2c68,0,68-22.2,136.1-22.2"/>
	<path class="st0" d="M17.9,21.6c68,0,68,22.2,136.1,22.2c68,0,68-22.2,136.1-22.2c68,0,68,22.2,136.1,22.2c68,0,68-22.2,136.1-22.2
		c68,0,68,22.2,136.1,22.2s68-22.2,136.1-22.2"/>
	<path class="st0" d="M21.4,25.3c68,0,68,22.2,136.1,22.2c68,0,68-22.2,136.1-22.2c68,0,68,22.2,136.1,22.2c68,0,68-22.2,136.1-22.2
		s68,22.2,136.1,22.2s68-22.2,136.1-22.2"/>
	<path class="st0" d="M25,29c68,0,68,22.2,136.1,22.2c68,0,68-22.2,136.1-22.2c68,0,68,22.2,136.1,22.2c68,0,68-22.2,136.1-22.2
		s68,22.2,136.1,22.2S773.4,29,841.4,29"/>
	<path class="st0" d="M28.6,32.7c68,0,68,22.2,136.1,22.2c68,0,68-22.2,136.1-22.2c68,0,68,22.2,136.1,22.2c68,0,68-22.2,136.1-22.2
		c68,0,68,22.2,136.1,22.2c68,0,68-22.2,136.1-22.2"/>
	<path class="st0" d="M32.1,36.3c68,0,68,22.2,136.1,22.2c68,0,68-22.2,136.1-22.2c68,0,68,22.2,136.1,22.2c68,0,68-22.2,136.1-22.2
		c68,0,68,22.2,136.1,22.2c68,0,68-22.2,136.1-22.2"/>
	<path class="st0" d="M35.7,40c68,0,68,22.2,136.1,22.2c68,0,68-22.2,136.1-22.2c68,0,68,22.2,136.1,22.2C512,62.2,512,40,580,40
		c68,0,68,22.2,136.1,22.2c68,0,68-22.2,136.1-22.2"/>
	<path class="st0" d="M39.3,43.7c68,0,68,22.2,136.1,22.2c68,0,68-22.2,136.1-22.2c68,0,68,22.2,136.1,22.2c68,0,68-22.2,136.1-22.2
		c68,0,68,22.2,136.1,22.2c68,0,68-22.2,136.1-22.2"/>
	<path class="st0" d="M42.9,47.4c68,0,68,22.2,136.1,22.2c68,0,68-22.2,136.1-22.2c68,0,68,22.2,136.1,22.2c68,0,68-22.2,136.1-22.2
		c68,0,68,22.2,136.1,22.2c68,0,68-22.2,136.1-22.2"/>
	<path class="st0" d="M46.4,51.1c68,0,68,22.2,136.1,22.2c68,0,68-22.2,136.1-22.2c68,0,68,22.2,136.1,22.2c68,0,68-22.2,136.1-22.2
		s68,22.2,136.1,22.2s68-22.2,136.1-22.2"/>
	<path class="st0" d="M50,54.8c68,0,68,22.2,136.1,22.2c68,0,68-22.2,136.1-22.2c68,0,68,22.2,136.1,22.2c68,0,68-22.2,136.1-22.2
		c68,0,68,22.2,136.1,22.2c68,0,68-22.2,136.1-22.2"/>
	<path class="st0" d="M53.6,58.4c68,0,68,22.2,136.1,22.2c68,0,68-22.2,136.1-22.2c68,0,68,22.2,136.1,22.2c68,0,68-22.2,136.1-22.2
		c68,0,68,22.2,136.1,22.2c68,0,68-22.2,136.1-22.2"/>
	<path class="st0" d="M57.2,62.1c68,0,68,22.2,136.1,22.2c68,0,68-22.2,136.1-22.2c68,0,68,22.2,136.1,22.2c68,0,68-22.2,136.1-22.2
		s68,22.2,136.1,22.2s68-22.2,136.1-22.2"/>
</g>
<g>
	<path class="st0" d="M10.4,119.3c68,0,68,22.2,136.1,22.2c68,0,68-22.2,136.1-22.2c68,0,68,22.2,136.1,22.2
		c68,0,68-22.2,136.1-22.2c68,0,68,22.2,136.1,22.2c68,0,68-22.2,136.1-22.2"/>
	<path class="st0" d="M14.9,124.4c68,0,68,22.2,136.1,22.2c68,0,68-22.2,136.1-22.2c68,0,68,22.2,136.1,22.2
		c68,0,68-22.2,136.1-22.2c68,0,68,22.2,136.1,22.2s68-22.2,136.1-22.2"/>
	<path class="st0" d="M19.5,129.4c68,0,68,22.2,136.1,22.2c68,0,68-22.2,136.1-22.2c68,0,68,22.2,136.1,22.2
		c68,0,68-22.2,136.1-22.2c68,0,68,22.2,136.1,22.2s68-22.2,136.1-22.2"/>
	<path class="st0" d="M24.1,134.5c68,0,68,22.2,136.1,22.2c68,0,68-22.2,136.1-22.2c68,0,68,22.2,136.1,22.2
		c68,0,68-22.2,136.1-22.2s68,22.2,136.1,22.2c68,0,68-22.2,136.1-22.2"/>
	<path class="st0" d="M28.7,139.6c68,0,68,22.2,136.1,22.2c68,0,68-22.2,136.1-22.2c68,0,68,22.2,136.1,22.2
		c68,0,68-22.2,136.1-22.2s68,22.2,136.1,22.2s68-22.2,136.1-22.2"/>
	<path class="st0" d="M33.2,144.7c68,0,68,22.2,136.1,22.2c68,0,68-22.2,136.1-22.2c68,0,68,22.2,136.1,22.2
		c68,0,68-22.2,136.1-22.2c68,0,68,22.2,136.1,22.2c68,0,68-22.2,136.1-22.2"/>
	<path class="st0" d="M37.8,149.7c68,0,68,22.2,136.1,22.2c68,0,68-22.2,136.1-22.2c68,0,68,22.2,136.1,22.2
		c68,0,68-22.2,136.1-22.2c68,0,68,22.2,136.1,22.2c68,0,68-22.2,136.1-22.2"/>
	<path class="st0" d="M42.4,154.8c68,0,68,22.2,136.1,22.2c68,0,68-22.2,136.1-22.2c68,0,68,22.2,136.1,22.2
		c68,0,68-22.2,136.1-22.2c68,0,68,22.2,136.1,22.2c68,0,68-22.2,136.1-22.2"/>
	<path class="st0" d="M47,159.9c68,0,68,22.2,136.1,22.2c68,0,68-22.2,136.1-22.2c68,0,68,22.2,136.1,22.2c68,0,68-22.2,136.1-22.2
		c68,0,68,22.2,136.1,22.2c68,0,68-22.2,136.1-22.2"/>
	<path class="st0" d="M51.5,165c68,0,68,22.2,136.1,22.2c68,0,68-22.2,136.1-22.2c68,0,68,22.2,136.1,22.2c68,0,68-22.2,136.1-22.2
		s68,22.2,136.1,22.2c68,0,68-22.2,136.1-22.2"/>
	<path class="st0" d="M56.1,170c68,0,68,22.2,136.1,22.2c68,0,68-22.2,136.1-22.2c68,0,68,22.2,136.1,22.2c68,0,68-22.2,136.1-22.2
		s68,22.2,136.1,22.2s68-22.2,136.1-22.2"/>
	<path class="st0" d="M60.7,175.1c68,0,68,22.2,136.1,22.2c68,0,68-22.2,136.1-22.2c68,0,68,22.2,136.1,22.2
		c68,0,68-22.2,136.1-22.2s68,22.2,136.1,22.2c68,0,68-22.2,136.1-22.2"/>
	<path class="st0" d="M65.3,180.2c68,0,68,22.2,136.1,22.2c68,0,68-22.2,136.1-22.2c68,0,68,22.2,136.1,22.2
		c68,0,68-22.2,136.1-22.2s68,22.2,136.1,22.2s68-22.2,136.1-22.2"/>
	<path class="st0" d="M69.9,185.3c68,0,68,22.2,136.1,22.2c68,0,68-22.2,136.1-22.2c68,0,68,22.2,136.1,22.2
		c68,0,68-22.2,136.1-22.2s68,22.2,136.1,22.2s68-22.2,136.1-22.2"/>
	<path class="st0" d="M74.4,190.3c68,0,68,22.2,136.1,22.2c68,0,68-22.2,136.1-22.2c68,0,68,22.2,136.1,22.2
		c68,0,68-22.2,136.1-22.2c68,0,68,22.2,136.1,22.2s68-22.2,136.1-22.2"/>
	<path class="st0" d="M79,195.4c68,0,68,22.2,136.1,22.2c68,0,68-22.2,136.1-22.2c68,0,68,22.2,136.1,22.2c68,0,68-22.2,136.1-22.2
		c68,0,68,22.2,136.1,22.2c68,0,68-22.2,136.1-22.2"/>
	<path class="st0" d="M83.6,200.5c68,0,68,22.2,136.1,22.2c68,0,68-22.2,136.1-22.2c68,0,68,22.2,136.1,22.2
		c68,0,68-22.2,136.1-22.2c68,0,68,22.2,136.1,22.2c68,0,68-22.2,136.1-22.2"/>
</g>
<g>
	<path class="st0" d="M19.3,277c68,0,68,22.2,136.1,22.2c68,0,68-22.2,136.1-22.2c68,0,68,22.2,136.1,22.2c68,0,68-22.2,136.1-22.2
		c68,0,68,22.2,136.1,22.2c68,0,68-22.2,136.1-22.2"/>
	<path class="st0" d="M20.8,280.3c68,0,68,22.2,136.1,22.2c68,0,68-22.2,136.1-22.2c68,0,68,22.2,136.1,22.2
		c68,0,68-22.2,136.1-22.2s68,22.2,136.1,22.2s68-22.2,136.1-22.2"/>
	<path class="st0" d="M22.3,283.5c68,0,68,22.2,136.1,22.2c68,0,68-22.2,136.1-22.2c68,0,68,22.2,136.1,22.2
		c68,0,68-22.2,136.1-22.2c68,0,68,22.2,136.1,22.2c68,0,68-22.2,136.1-22.2"/>
	<path class="st0" d="M23.8,286.7c68,0,68,22.2,136.1,22.2c68,0,68-22.2,136.1-22.2c68,0,68,22.2,136.1,22.2
		c68,0,68-22.2,136.1-22.2c68,0,68,22.2,136.1,22.2c68,0,68-22.2,136.1-22.2"/>
	<path class="st0" d="M25.4,290c68,0,68,22.2,136.1,22.2c68,0,68-22.2,136.1-22.2c68,0,68,22.2,136.1,22.2c68,0,68-22.2,136.1-22.2
		s68,22.2,136.1,22.2s68-22.2,136.1-22.2"/>
	<path class="st0" d="M26.9,293.2c68,0,68,22.2,136.1,22.2c68,0,68-22.2,136.1-22.2c68,0,68,22.2,136.1,22.2
		c68,0,68-22.2,136.1-22.2c68,0,68,22.2,136.1,22.2c68,0,68-22.2,136.1-22.2"/>
	<path class="st0" d="M28.4,296.5c68,0,68,22.2,136.1,22.2c68,0,68-22.2,136.1-22.2c68,0,68,22.2,136.1,22.2
		c68,0,68-22.2,136.1-22.2s68,22.2,136.1,22.2s68-22.2,136.1-22.2"/>
	<path class="st0" d="M30,299.7c68,0,68,22.2,136.1,22.2c68,0,68-22.2,136.1-22.2c68,0,68,22.2,136.1,22.2c68,0,68-22.2,136.1-22.2
		c68,0,68,22.2,136.1,22.2c68,0,68-22.2,136.1-22.2"/>
	<path class="st0" d="M31.5,302.9c68,0,68,22.2,136.1,22.2c68,0,68-22.2,136.1-22.2c68,0,68,22.2,136.1,22.2
		c68,0,68-22.2,136.1-22.2c68,0,68,22.2,136.1,22.2c68,0,68-22.2,136.1-22.2"/>
	<path class="st0" d="M33,306.2c68,0,68,22.2,136.1,22.2c68,0,68-22.2,136.1-22.2c68,0,68,22.2,136.1,22.2c68,0,68-22.2,136.1-22.2
		s68,22.2,136.1,22.2s68-22.2,136.1-22.2"/>
	<path class="st0" d="M34.5,309.4c68,0,68,22.2,136.1,22.2c68,0,68-22.2,136.1-22.2c68,0,68,22.2,136.1,22.2
		c68,0,68-22.2,136.1-22.2s68,22.2,136.1,22.2c68,0,68-22.2,136.1-22.2"/>
	<path class="st0" d="M36.1,312.6c68,0,68,22.2,136.1,22.2c68,0,68-22.2,136.1-22.2c68,0,68,22.2,136.1,22.2
		c68,0,68-22.2,136.1-22.2c68,0,68,22.2,136.1,22.2s68-22.2,136.1-22.2"/>
	<path class="st0" d="M37.6,315.9c68,0,68,22.2,136.1,22.2c68,0,68-22.2,136.1-22.2c68,0,68,22.2,136.1,22.2
		c68,0,68-22.2,136.1-22.2s68,22.2,136.1,22.2c68,0,68-22.2,136.1-22.2"/>
	<path class="st0" d="M39.1,319.1c68,0,68,22.2,136.1,22.2c68,0,68-22.2,136.1-22.2c68,0,68,22.2,136.1,22.2
		c68,0,68-22.2,136.1-22.2c68,0,68,22.2,136.1,22.2c68,0,68-22.2,136.1-22.2"/>
	<path class="st0" d="M40.6,322.4c68,0,68,22.2,136.1,22.2c68,0,68-22.2,136.1-22.2c68,0,68,22.2,136.1,22.2
		c68,0,68-22.2,136.1-22.2c68,0,68,22.2,136.1,22.2c68,0,68-22.2,136.1-22.2"/>
	<path class="st0" d="M42.2,325.6c68,0,68,22.2,136.1,22.2c68,0,68-22.2,136.1-22.2c68,0,68,22.2,136.1,22.2
		c68,0,68-22.2,136.1-22.2s68,22.2,136.1,22.2s68-22.2,136.1-22.2"/>
	<path class="st0" d="M43.7,328.8c68,0,68,22.2,136.1,22.2c68,0,68-22.2,136.1-22.2c68,0,68,22.2,136.1,22.2
		c68,0,68-22.2,136.1-22.2c68,0,68,22.2,136.1,22.2c68,0,68-22.2,136.1-22.2"/>
</g>
<g>
	<path class="st0" d="M23.3,272.3c68,0,68,22.2,136.1,22.2c68,0,68-22.2,136.1-22.2c68,0,68,22.2,136.1,22.2
		c68,0,68-22.2,136.1-22.2c68,0,68,22.2,136.1,22.2c68,0,68-22.2,136.1-22.2"/>
	<path class="st0" d="M27.3,267.6c68,0,68,22.2,136.1,22.2c68,0,68-22.2,136.1-22.2c68,0,68,22.2,136.1,22.2
		c68,0,68-22.2,136.1-22.2c68,0,68,22.2,136.1,22.2s68-22.2,136.1-22.2"/>
	<path class="st0" d="M31.3,262.8c68,0,68,22.2,136.1,22.2c68,0,68-22.2,136.1-22.2c68,0,68,22.2,136.1,22.2
		c68,0,68-22.2,136.1-22.2s68,22.2,136.1,22.2s68-22.2,136.1-22.2"/>
	<path class="st0" d="M35.3,258.1c68,0,68,22.2,136.1,22.2c68,0,68-22.2,136.1-22.2c68,0,68,22.2,136.1,22.2
		c68,0,68-22.2,136.1-22.2c68,0,68,22.2,136.1,22.2s68-22.2,136.1-22.2"/>
	<path class="st0" d="M39.4,253.4c68,0,68,22.2,136.1,22.2c68,0,68-22.2,136.1-22.2c68,0,68,22.2,136.1,22.2
		c68,0,68-22.2,136.1-22.2c68,0,68,22.2,136.1,22.2s68-22.2,136.1-22.2"/>
	<path class="st0" d="M43.4,248.6c68,0,68,22.2,136.1,22.2c68,0,68-22.2,136.1-22.2c68,0,68,22.2,136.1,22.2
		c68,0,68-22.2,136.1-22.2c68,0,68,22.2,136.1,22.2c68,0,68-22.2,136.1-22.2"/>
	<path class="st0" d="M47.4,243.9c68,0,68,22.2,136.1,22.2c68,0,68-22.2,136.1-22.2c68,0,68,22.2,136.1,22.2
		c68,0,68-22.2,136.1-22.2s68,22.2,136.1,22.2c68,0,68-22.2,136.1-22.2"/>
	<path class="st0" d="M51.4,239.2c68,0,68,22.2,136.1,22.2c68,0,68-22.2,136.1-22.2c68,0,68,22.2,136.1,22.2
		c68,0,68-22.2,136.1-22.2c68,0,68,22.2,136.1,22.2c68,0,68-22.2,136.1-22.2"/>
	<path class="st0" d="M55.4,234.4c68,0,68,22.2,136.1,22.2c68,0,68-22.2,136.1-22.2c68,0,68,22.2,136.1,22.2
		c68,0,68-22.2,136.1-22.2c68,0,68,22.2,136.1,22.2s68-22.2,136.1-22.2"/>
	<path class="st0" d="M59.5,229.7c68,0,68,22.2,136.1,22.2c68,0,68-22.2,136.1-22.2c68,0,68,22.2,136.1,22.2
		c68,0,68-22.2,136.1-22.2c68,0,68,22.2,136.1,22.2c68,0,68-22.2,136.1-22.2"/>
	<path class="st0" d="M63.5,225c68,0,68,22.2,136.1,22.2c68,0,68-22.2,136.1-22.2c68,0,68,22.2,136.1,22.2c68,0,68-22.2,136.1-22.2
		s68,22.2,136.1,22.2s68-22.2,136.1-22.2"/>
	<path class="st0" d="M67.5,220.2c68,0,68,22.2,136.1,22.2c68,0,68-22.2,136.1-22.2c68,0,68,22.2,136.1,22.2
		c68,0,68-22.2,136.1-22.2c68,0,68,22.2,136.1,22.2s68-22.2,136.1-22.2"/>
	<path class="st0" d="M71.5,215.5c68,0,68,22.2,136.1,22.2c68,0,68-22.2,136.1-22.2c68,0,68,22.2,136.1,22.2
		c68,0,68-22.2,136.1-22.2s68,22.2,136.1,22.2s68-22.2,136.1-22.2"/>
	<path class="st0" d="M75.5,210.8c68,0,68,22.2,136.1,22.2c68,0,68-22.2,136.1-22.2c68,0,68,22.2,136.1,22.2
		c68,0,68-22.2,136.1-22.2c68,0,68,22.2,136.1,22.2c68,0,68-22.2,136.1-22.2"/>
	<path class="st0" d="M79.6,206c68,0,68,22.2,136.1,22.2c68,0,68-22.2,136.1-22.2c68,0,68,22.2,136.1,22.2c68,0,68-22.2,136.1-22.2
		c68,0,68,22.2,136.1,22.2c68,0,68-22.2,136.1-22.2"/>
</g>
<g>
	<path class="st0" d="M54.2,65.8c68,0,68,22.2,136.1,22.2c68,0,68-22.2,136.1-22.2c68,0,68,22.2,136.1,22.2c68,0,68-22.2,136.1-22.2
		c68,0,68,22.2,136.1,22.2c68,0,68-22.2,136.1-22.2"/>
	<path class="st0" d="M51.3,69.4c68,0,68,22.2,136.1,22.2c68,0,68-22.2,136.1-22.2c68,0,68,22.2,136.1,22.2c68,0,68-22.2,136.1-22.2
		s68,22.2,136.1,22.2s68-22.2,136.1-22.2"/>
	<path class="st0" d="M48.4,73c68,0,68,22.2,136.1,22.2c68,0,68-22.2,136.1-22.2c68,0,68,22.2,136.1,22.2c68,0,68-22.2,136.1-22.2
		c68,0,68,22.2,136.1,22.2c68,0,68-22.2,136.1-22.2"/>
	<path class="st0" d="M45.5,76.6c68,0,68,22.2,136.1,22.2c68,0,68-22.2,136.1-22.2c68,0,68,22.2,136.1,22.2c68,0,68-22.2,136.1-22.2
		c68,0,68,22.2,136.1,22.2s68-22.2,136.1-22.2"/>
	<path class="st0" d="M42.5,80.2c68,0,68,22.2,136.1,22.2c68,0,68-22.2,136.1-22.2c68,0,68,22.2,136.1,22.2c68,0,68-22.2,136.1-22.2
		s68,22.2,136.1,22.2c68,0,68-22.2,136.1-22.2"/>
	<path class="st0" d="M39.6,83.9c68,0,68,22.2,136.1,22.2c68,0,68-22.2,136.1-22.2c68,0,68,22.2,136.1,22.2c68,0,68-22.2,136.1-22.2
		c68,0,68,22.2,136.1,22.2S788,83.9,856,83.9"/>
	<path class="st0" d="M36.7,87.5c68,0,68,22.2,136.1,22.2c68,0,68-22.2,136.1-22.2c68,0,68,22.2,136.1,22.2c68,0,68-22.2,136.1-22.2
		c68,0,68,22.2,136.1,22.2s68-22.2,136.1-22.2"/>
	<path class="st0" d="M33.8,91.1c68,0,68,22.2,136.1,22.2c68,0,68-22.2,136.1-22.2c68,0,68,22.2,136.1,22.2c68,0,68-22.2,136.1-22.2
		c68,0,68,22.2,136.1,22.2c68,0,68-22.2,136.1-22.2"/>
	<path class="st0" d="M30.8,94.7c68,0,68,22.2,136.1,22.2c68,0,68-22.2,136.1-22.2c68,0,68,22.2,136.1,22.2c68,0,68-22.2,136.1-22.2
		c68,0,68,22.2,136.1,22.2c68,0,68-22.2,136.1-22.2"/>
	<path class="st0" d="M27.9,98.4c68,0,68,22.2,136.1,22.2c68,0,68-22.2,136.1-22.2c68,0,68,22.2,136.1,22.2c68,0,68-22.2,136.1-22.2
		c68,0,68,22.2,136.1,22.2c68,0,68-22.2,136.1-22.2"/>
	<path class="st0" d="M25,102c68,0,68,22.2,136.1,22.2c68,0,68-22.2,136.1-22.2c68,0,68,22.2,136.1,22.2c68,0,68-22.2,136.1-22.2
		c68,0,68,22.2,136.1,22.2s68-22.2,136.1-22.2"/>
	<path class="st0" d="M22.1,105.6c68,0,68,22.2,136.1,22.2c68,0,68-22.2,136.1-22.2c68,0,68,22.2,136.1,22.2
		c68,0,68-22.2,136.1-22.2c68,0,68,22.2,136.1,22.2c68,0,68-22.2,136.1-22.2"/>
	<path class="st0" d="M19.1,109.2c68,0,68,22.2,136.1,22.2c68,0,68-22.2,136.1-22.2c68,0,68,22.2,136.1,22.2
		c68,0,68-22.2,136.1-22.2s68,22.2,136.1,22.2s68-22.2,136.1-22.2"/>
	<path class="st0" d="M16.2,112.9c68,0,68,22.2,136.1,22.2c68,0,68-22.2,136.1-22.2c68,0,68,22.2,136.1,22.2
		c68,0,68-22.2,136.1-22.2c68,0,68,22.2,136.1,22.2s68-22.2,136.1-22.2"/>
	<path class="st0" d="M13.3,116.5c68,0,68,22.2,136.1,22.2c68,0,68-22.2,136.1-22.2c68,0,68,22.2,136.1,22.2
		c68,0,68-22.2,136.1-22.2c68,0,68,22.2,136.1,22.2c68,0,68-22.2,136.1-22.2"/>
</g>
</svg>
